<?xml version="1.0" encoding="UTF-8" standalone="no"?>
<!-- Created with Inkscape (http://www.inkscape.org/) -->

<svg
   width="1920"
   height="1080"
   viewBox="0 0 507.99999 285.75"
   version="1.1"
   id="svg1"
   inkscape:version="1.3.2 (091e20e, 2023-11-25, custom)"
   sodipodi:docname="map1_design.svg"
   xml:space="preserve"
   xmlns:inkscape="http://www.inkscape.org/namespaces/inkscape"
   xmlns:sodipodi="http://sodipodi.sourceforge.net/DTD/sodipodi-0.dtd"
   xmlns="http://www.w3.org/2000/svg"
   xmlns:svg="http://www.w3.org/2000/svg"><sodipodi:namedview
     id="namedview1"
     pagecolor="#ffffff"
     bordercolor="#000000"
     borderopacity="0.25"
     inkscape:showpageshadow="2"
     inkscape:pageopacity="0.0"
     inkscape:pagecheckerboard="0"
     inkscape:deskcolor="#d1d1d1"
     inkscape:document-units="mm"
     inkscape:zoom="1.5382846"
     inkscape:cx="764.48791"
     inkscape:cy="1024.8429"
     inkscape:window-width="2560"
     inkscape:window-height="1417"
     inkscape:window-x="-8"
     inkscape:window-y="-8"
     inkscape:window-maximized="1"
     inkscape:current-layer="layer1" /><defs
     id="defs1" /><g
     inkscape:label="圖層 1"
     inkscape:groupmode="layer"
     id="layer1"><path
       style="fill:#000000;fill-opacity:0.994595;stroke:#1a1a1a;stroke-width:0.183"
       d="m 34.6047,75.543036 h 125.75249 l -6.76213,14.240415 -9.63194,-8.427951 -8.77195,11.695928 -9.97594,-6.53596 -8.25595,-2.407983 -9.11594,12.039927 -12.899922,-5.027189 -9.459941,8.009233 -11.179932,-12.09799 -6.191962,8.25595 L 55.383659,86.171473 49.191698,100.44738 43.687732,84.967478 39.731756,92.152217 34.6047,75.543036"
       id="path3"
       sodipodi:nodetypes="ccccccccccccccccc" /><path
       style="fill:#000000;fill-opacity:0.994595;stroke:#1a1a1a;stroke-width:0.183"
       d="M 477.89589,75.543036 H 352.1434 l 6.93413,15.577189 9.45994,-7.528739 8.77195,12.383924 9.97594,-7.051957 6.70796,-4.815968 10.66393,12.039927 12.89992,-5.027189 9.45994,8.697229 11.17994,-12.785986 7.56795,8.25595 8.94394,-9.115943 8.59995,9.115939 5.50397,-10.319934 3.95598,6.152747 5.12705,-15.577189"
       id="path4"
       sodipodi:nodetypes="ccccccccccccccccc" /><path
       style="fill:#000000;fill-opacity:0.994595;stroke:#1a1a1a;stroke-width:0.183"
       d="m 108.57702,187.58007 c 6.72028,-0.0374 290.84591,0 290.84591,0 l -5.61213,23.83794 -16.75425,-8.27353 -9.75925,15.56441 -13.86488,-13.93475 -17.51351,-3.01967 -3.16217,16.95442 -20.43242,-16.817 -19.7027,16.817 -18.48649,-15.56441 -11.91892,2.62498 -10.94594,7.80317 -16.2973,-7.67617 -15.32432,-0.68799 -12.40541,10.02513 -17.51351,-11.13017 -20.91892,14.64281 -16.05406,-12.18087 -20.67567,-0.32491 -4.62162,12.46843 -13.37838,-19.00619 z"
       id="path5"
       sodipodi:nodetypes="ccccccccccccccccccccccc" /></g></svg>
